<?xml version="1.0" encoding="iso-8859-1"?>
<!-- Generator: Adobe Illustrator 19.0.0, SVG Export Plug-In . SVG Version: 6.00 Build 0)  -->
<svg version="1.1" id="Layer_1" xmlns="http://www.w3.org/2000/svg" xmlns:xlink="http://www.w3.org/1999/xlink" x="0px" y="0px"
	 viewBox="0 0 512 512" style="enable-background:new 0 0 512 512;" xml:space="preserve">
<g>
	<polygon style="fill:#BDC3C7;" points="406.069,105.931 300.138,105.931 300.138,0 	"/>
	<polygon style="fill:#13A085;" points="229.517,406.069 512,406.069 512,194.207 229.517,194.207 	"/>
	<polygon style="fill:#ECF0F1;" points="229.517,406.069 229.517,194.207 406.069,194.207 406.069,105.931 300.138,105.931 
		300.138,0 0,0 0,512 406.069,512 406.069,406.069 	"/>
	<g>
		<path style="fill:#FFFFFF;" d="M432.552,379.586c-24.338,0-44.138-19.8-44.138-44.138c0-4.873,3.946-8.828,8.828-8.828
			c4.882,0,8.828,3.955,8.828,8.828c0,14.601,11.882,26.483,26.483,26.483s26.483-11.882,26.483-26.483
			s-11.882-26.483-26.483-26.483c-24.338,0-44.138-19.8-44.138-44.138c0-24.338,19.8-44.138,44.138-44.138
			s44.138,19.8,44.138,44.138c0,4.873-3.946,8.828-8.828,8.828c-4.882,0-8.828-3.955-8.828-8.828
			c0-14.601-11.882-26.483-26.483-26.483s-26.483,11.882-26.483,26.483c0,14.601,11.882,26.483,26.483,26.483
			c24.338,0,44.138,19.8,44.138,44.138S456.889,379.586,432.552,379.586"/>
		<path style="fill:#FFFFFF;" d="M370.759,379.591c-3.566,0-6.938-2.189-8.271-5.729l-43.935-117.177l-36.476,116.71
			c-1.457,4.643-6.444,7.23-11.052,5.791c-4.652-1.457-7.247-6.4-5.791-11.061l44.138-141.241c1.121-3.602,4.405-6.082,8.174-6.188
			c4.167-0.221,7.194,2.198,8.519,5.72l52.966,141.241c1.704,4.573-0.609,9.657-5.164,11.37
			C372.833,379.405,371.791,379.591,370.759,379.591"/>
		<path style="fill:#FFFFFF;" d="M350.897,326.621h-60.69c-4.882,0-8.828-3.955-8.828-8.828c0-4.873,3.946-8.828,8.828-8.828h60.69
			c4.882,0,8.828,3.955,8.828,8.828C359.724,322.666,355.778,326.621,350.897,326.621"/>
	</g>
</g>
<g>
</g>
<g>
</g>
<g>
</g>
<g>
</g>
<g>
</g>
<g>
</g>
<g>
</g>
<g>
</g>
<g>
</g>
<g>
</g>
<g>
</g>
<g>
</g>
<g>
</g>
<g>
</g>
<g>
</g>
</svg>
