<?xml version="1.0" encoding="UTF-8"?>
<svg xmlns="http://www.w3.org/2000/svg" xmlns:xlink="http://www.w3.org/1999/xlink" width="64pt" height="64pt" viewBox="0 0 64 64" version="1.1">
<g id="surface15120811">
<path style=" stroke:none;fill-rule:nonzero;fill:rgb(20.392157%,59.607843%,85.882353%);fill-opacity:1;" d="M 32 6 C 17.660156 6 6 17.664062 6 32 L 16 32 C 16 23.164062 23.164062 16 32 16 C 40.835938 16 48 23.164062 48 32 C 48 40.835938 40.835938 48 32 48 L 32 58 C 46.339844 58 58 46.335938 58 32 C 58 17.664062 46.339844 6 32 6 Z M 32 48 L 32 36 L 20 36 L 20 48 Z M 20 48 L 12 48 L 12 56 L 20 56 Z M 12 48 L 12 42 L 6 42 L 6 48 Z M 12 48 "/>
</g>
</svg>
