<svg xmlns="http://www.w3.org/2000/svg" viewBox="0 0 80 80" width="40px" height="40px"><path fill="#f5ce85" d="M7.5,40c0-15.314,9.304-28.454,22.567-34.078C13.318,8.532,0.5,23.018,0.5,40.5 c0,18.805,14.831,34.14,33.433,34.96C18.649,70.912,7.5,56.762,7.5,40z"/><path fill="#ba9b48" d="M37.966,76.138l-4.054-0.178C14.896,75.122,0,59.546,0,40.5C0,22.886,12.613,8.136,29.99,5.428 l3.989-0.622l-3.717,1.576C16.738,12.117,8,25.313,8,40c0,16.028,10.723,30.412,26.076,34.98L37.966,76.138z M26.181,7.269 C11.374,11.361,1,24.753,1,40.5c0,17.14,12.413,31.387,28.922,34.049C16.245,68.752,7,55.084,7,40 C7,26.292,14.408,13.849,26.181,7.269z"/><path fill="#8bb7f0" d="M9.934,34.5c-0.207,1.31-0.339,2.645-0.396,4h69.924c-0.057-1.355-0.189-2.69-0.396-4H9.934z"/><path fill="#4e7ab5" d="M79.983,39H9.017l0.022-0.521c0.058-1.374,0.193-2.739,0.401-4.057L9.506,34h69.987l0.067,0.422 c0.209,1.323,0.344,2.688,0.401,4.057L79.983,39z M10.063,38h68.873c-0.057-1.011-0.157-2.016-0.3-3H10.364 C10.222,35.981,10.121,36.987,10.063,38z"/><path fill="#8bb7f0" d="M78.184,30.5C74.043,15.788,60.536,5,44.5,5S14.957,15.788,10.816,30.5H78.184z"/><path fill="#4e7ab5" d="M78.845,31H10.155l0.179-0.635C14.622,15.136,28.671,4.5,44.5,4.5s29.879,10.636,34.166,25.865 L78.845,31z M11.482,30h66.035C73.144,15.542,59.662,5.5,44.5,5.5C29.338,5.5,15.856,15.542,11.482,30z"/><g><path fill="#8bb7f0" d="M78.888,46.5c0.246-1.309,0.418-2.644,0.513-4H9.599c0.096,1.356,0.268,2.691,0.513,4H78.888z"/><path fill="#4e7ab5" d="M79.303,47H9.698l-0.077-0.407C9.372,45.265,9.196,43.9,9.1,42.535L9.062,42h70.875L79.9,42.535 c-0.097,1.365-0.271,2.729-0.521,4.058L79.303,47z M10.53,46h67.941c0.172-0.986,0.303-1.992,0.39-3H10.139 C10.226,44.008,10.357,45.014,10.53,46z"/></g><g><path fill="#8bb7f0" d="M11.105,50.5C15.565,64.699,28.829,75,44.5,75s28.935-10.301,33.395-24.5H11.105z"/><path fill="#4e7ab5" d="M44.5,75.5c-15.591,0-29.203-9.986-33.873-24.851L10.423,50h68.154l-0.205,0.649 C73.703,65.514,60.091,75.5,44.5,75.5z M11.792,51C16.519,65.085,29.577,74.5,44.5,74.5c14.923,0,27.981-9.415,32.707-23.5H11.792 z"/></g><g><path fill="#b5ddf5" d="M24.039,51c3.816,7.421,11.543,12.5,20.461,12.5S61.145,58.421,64.961,51H24.039z"/></g></svg>