<?xml version="1.0" encoding="iso-8859-1"?>
<!-- Generator: Adobe Illustrator 19.0.0, SVG Export Plug-In . SVG Version: 6.00 Build 0)  -->
<svg version="1.1" id="Layer_1" xmlns="http://www.w3.org/2000/svg" xmlns:xlink="http://www.w3.org/1999/xlink" x="0px" y="0px"
	 viewBox="0 0 512 512" style="enable-background:new 0 0 512 512;" xml:space="preserve">
<g>
	<polygon style="fill:#BDC3C7;" points="406.069,105.931 300.138,105.931 300.138,0 	"/>
	<polygon style="fill:#F29C1F;" points="158.897,406.069 512,406.069 512,194.207 158.897,194.207 	"/>
	<path style="fill:#FFFFFF;" d="M326.621,379.586c-24.338,0-44.138-19.8-44.138-44.138c0-4.873,3.955-8.828,8.828-8.828
		c4.873,0,8.828,3.955,8.828,8.828c0,14.601,11.882,26.483,26.483,26.483c14.601,0,26.483-11.882,26.483-26.483
		s-11.882-26.483-26.483-26.483c-24.338,0-44.138-19.8-44.138-44.138c0-24.338,19.8-44.138,44.138-44.138
		c24.338,0,44.138,19.8,44.138,44.138c0,4.873-3.955,8.828-8.828,8.828s-8.828-3.955-8.828-8.828
		c0-14.601-11.882-26.483-26.483-26.483c-14.601,0-26.483,11.882-26.483,26.483c0,14.601,11.882,26.483,26.483,26.483
		c24.338,0,44.138,19.8,44.138,44.138S350.958,379.586,326.621,379.586"/>
	<polygon style="fill:#ECF0F1;" points="158.897,406.069 158.897,194.207 406.069,194.207 406.069,105.931 300.138,105.931 
		300.138,0 0,0 0,512 406.069,512 406.069,406.069 	"/>
	<g>
		<path style="fill:#FFFFFF;" d="M220.69,379.586c-19.474,0-35.31-15.837-35.31-35.31c0-4.873,3.955-8.828,8.828-8.828
			s8.828,3.955,8.828,8.828c0,9.737,7.918,17.655,17.655,17.655s17.655-7.918,17.655-17.655V238.345
			c0-4.873,3.955-8.828,8.828-8.828c4.873,0,8.828,3.955,8.828,8.828v105.931C256,363.75,240.163,379.586,220.69,379.586"/>
		<path style="fill:#FFFFFF;" d="M414.897,291.31h35.31c9.737,0,17.655-7.918,17.655-17.655V256c0-9.737-7.918-17.655-17.655-17.655
			h-35.31V291.31z M450.207,308.966h-44.138c-4.873,0-8.828-3.955-8.828-8.828v-70.621c0-4.873,3.955-8.828,8.828-8.828h44.138
			c19.474,0,35.31,15.837,35.31,35.31v17.655C485.517,293.129,469.681,308.966,450.207,308.966L450.207,308.966z"/>
		<path style="fill:#FFFFFF;" d="M406.069,379.586c-4.873,0-8.828-3.955-8.828-8.828V229.517c0-4.873,3.955-8.828,8.828-8.828
			s8.828,3.955,8.828,8.828v141.241C414.897,375.631,410.942,379.586,406.069,379.586"/>
	</g>
</g>
<g>
</g>
<g>
</g>
<g>
</g>
<g>
</g>
<g>
</g>
<g>
</g>
<g>
</g>
<g>
</g>
<g>
</g>
<g>
</g>
<g>
</g>
<g>
</g>
<g>
</g>
<g>
</g>
<g>
</g>
</svg>
